inDegrees=no
num_controls=7
num_derivatives=13
num_iterations=86
num_multipliers=7
num_parameters=0
num_slacks=7
num_states=26
objective=0.452672
objective_accelerations=0.047164
objective_balance=0.000861
objective_effort=0.038504
objective_height=0.359961
objective_ligament=0.006182
solver_duration=1026.221258
status=Solve_Succeeded
success=true
DataType=double
version=3
OpenSimVersion=4.5
endheader
time	/jointset/ground_pelvis/pelvis_tilt/value	/jointset/ground_pelvis/pelvis_tx/value	/jointset/ground_pelvis/pelvis_ty/value	/jointset/hip_r/hip_flexion_r/value	/jointset/hip_r/hip_adduction_r/value	/jointset/hip_r/hip_rotation_r/value	/jointset/back/lumbar_extension/value	/jointset/patellofemoral_r/patellar_flexion_r/value	/jointset/knee_r/knee_flexion_r/value	/jointset/knee_r/knee_adduction_r/value	/jointset/knee_r/knee_rotation_r/value	/jointset/ankle_r/ankle_angle_r/value	/jointset/subtalar_r/subtalar_angle_r/value	/jointset/ground_pelvis/pelvis_tilt/speed	/jointset/ground_pelvis/pelvis_tx/speed	/jointset/ground_pelvis/pelvis_ty/speed	/jointset/hip_r/hip_flexion_r/speed	/jointset/hip_r/hip_adduction_r/speed	/jointset/hip_r/hip_rotation_r/speed	/jointset/back/lumbar_extension/speed	/jointset/patellofemoral_r/patellar_flexion_r/speed	/jointset/knee_r/knee_flexion_r/speed	/jointset/knee_r/knee_adduction_r/speed	/jointset/knee_r/knee_rotation_r/speed	/jointset/ankle_r/ankle_angle_r/speed	/jointset/subtalar_r/subtalar_angle_r/speed	/forceset/tau_hip_flexion_r	/forceset/tau_hip_adduction_r	/forceset/tau_hip_rotation_r	/forceset/tau_knee_flexion_r	/forceset/tau_ankle_angle_r	/forceset/tau_subtalar_angle_r	/forceset/tau_lumbar_extension	lambda_cid13_p0	lambda_cid14_p0	lambda_cid14_p1	lambda_cid14_p2	lambda_cid14_p3	lambda_cid14_p4	lambda_cid14_p5	/jointset/ground_pelvis/pelvis_tilt/accel	/jointset/ground_pelvis/pelvis_tx/accel	/jointset/ground_pelvis/pelvis_ty/accel	/jointset/hip_r/hip_flexion_r/accel	/jointset/hip_r/hip_adduction_r/accel	/jointset/hip_r/hip_rotation_r/accel	/jointset/back/lumbar_extension/accel	/jointset/patellofemoral_r/patellar_flexion_r/accel	/jointset/knee_r/knee_flexion_r/accel	/jointset/knee_r/knee_adduction_r/accel	/jointset/knee_r/knee_rotation_r/accel	/jointset/ankle_r/ankle_angle_r/accel	/jointset/subtalar_r/subtalar_angle_r/accel	gamma_cid13_p0	gamma_cid14_p0	gamma_cid14_p1	gamma_cid14_p2	gamma_cid14_p3	gamma_cid14_p4	gamma_cid14_p5
0.5	-0.1387470690280529	0.02719154004150219	0.8044297962057526	0.8941165025592562	-0.2521927088386287	-0.04662343730978423	-0.6504731777438938	0.972024004915276	0.9720240049153113	0.06164214155211892	0.1739329555150293	0.2928449108562164	0.09153392558451261	-0.364849367563262	-0.2032133017354291	-0.5032753251629777	1.880527588604338	-0.03285386147978616	0.5207453338224586	-0.731430823798051	1.960933061513802	1.960933061513805	-0.09280679406077064	-0.003661887773943653	0.5267740922032498	0.119783929174726	-0.1972439606526499	0.001706733361135307	0.03657462130817943	-0.2985543396894604	0.005353182888338396	-0.01346888230619131	0.2409394892333749	-7.131408556345632	-41.51952621086464	-11.9342586419832	0.9709741320869983	-4.786392945306443	-643.6524698489926	59.6773848612717	0.2449872611202999	0.5941042683578037	-0.3840532018992067	-1.252031401210469	0.2180527526151373	-0.1416051036968382	1.871857688269323	-1.526196338204719	-1.526196338204718	0.5125170487260645	-0.006800881247488723	-0.5682814510558819	0.2261927443945321	-8.106225631952256e-08	7.131659402305157e-09	1.515850965020832e-06	-6.75911097679693e-08	-1.624315403212051e-07	-1.610675220823674e-07	9.878351851839956e-07
0.51	-0.1423824381884172	0.025189266840246	0.7993789967854421	0.9128562088617163	-0.2525107778354266	-0.04142513571277819	-0.6576934526619042	0.9915541866280223	0.9915541866280164	0.06073931523096466	0.1738978484617257	0.2980832365794693	0.09274218655566605	-0.3621617823655948	-0.1972272687299902	-0.5067727077895953	1.867161869722359	-0.03075298129471991	0.5188367582206855	-0.712549032116773	1.944847218756367	1.944847218756367	-0.0878070737155309	-0.003346891298148265	0.5208191120697041	0.1218623518689634	-0.2036295884224567	0.002803942357925924	0.03724573264763528	-0.3034804977697564	0.00425778976445704	-0.01334149928538692	0.2468657180925881	-6.232595164795823	-42.18484108096627	-12.13833673203255	1.166746002399847	-4.670456310600661	-648.5233284760269	59.85613371097251	0.2900491905026176	0.6029304820910099	-0.3158337493761189	-1.416610173487544	0.2072347475219985	-0.2273527244989174	1.907609061130531	-1.688172162338733	-1.688172162339217	0.4866158097570251	0.05257880381839624	-0.619940711763992	0.1980113538832234	-7.262794527239106e-08	1.264819406589445e-08	1.472152062886482e-06	-1.80759764883021e-08	-1.635958674339308e-07	-1.452371717604289e-07	9.701778304508279e-07
0.52	-0.1459890504885245	0.02324726950213499	0.7942965729475987	0.9314547043669972	-0.2528076122111599	-0.03624829365900761	-0.664722655832487	1.010915831129626	1.010915831129584	0.05988506936972009	0.1738662771515481	0.303259845617935	0.09397110061815077	-0.3590979955114146	-0.1911581291063901	-0.5096002086695477	1.852285429168545	-0.02860693726686581	0.5164534251756568	-0.6932164743125542	1.927225619285898	1.927225619285895	-0.08309070207692548	-0.002954739149339828	0.5144307552457549	0.1239145474409952	-0.2100152161922544	0.003901151354710237	0.03791684398712365	-0.3084066558500517	0.003162396640572311	-0.01321411626459399	0.2527919469518103	-5.398409107486785	-42.84871563660334	-12.33641031813994	1.354989847980745	-4.58169005463198	-653.3745379415626	60.07253827036716	0.3202275924229439	0.6107255919900696	-0.2500768525661375	-1.554175735577467	0.2270855211727091	-0.2365565923479478	1.962010912857509	-1.833347680811535	-1.833347680811535	0.4558473073992113	0.008630253355120736	-0.6549567891365641	0.2209473199533993	-6.355222960054274e-08	1.737671115827759e-08	1.410888084930831e-06	2.883001836248165e-08	-1.627546086833362e-07	-1.29323072708012e-07	9.440227713724364e-07
0.53	-0.1495632557601015	0.02136631019981876	0.7891892373199713	0.9498971075552883	-0.2530827691688526	-0.03109751948448676	-0.6715563833584475	1.030093742523661	1.030093742523653	0.05907655372614022	0.1738388386268122	0.3083704648579169	0.09522039220195538	-0.3556862728798187	-0.1850259570196726	-0.5117526009315239	1.835955101800772	-0.02642332300362111	0.5136356694809977	-0.6734694959304534	1.908111516253676	1.908111516253676	-0.07864701531435996	-0.002527047567752354	0.507624272252482	0.1259287509169065	-0.2162214545616954	0.004946590221945076	0.03854995604477816	-0.3135001781476719	0.002119895354434692	-0.01317799463569101	0.2585274787134564	-4.628918706360678	-43.50797009906686	-12.57835742855901	1.55599406393676	-4.428340651520833	-658.2672764548587	60.23239604148612	0.3601653902636501	0.6155967050782823	-0.1806972171782578	-1.708474259589906	0.2142545093082274	-0.3143595223789507	1.989971543230168	-1.987201347470951	-1.987201347470491	0.4336277020741454	0.06077926791602541	-0.703857424901342	0.1896271458376096	-5.595704536603573e-08	2.05227135474642e-08	1.34782916188571e-06	6.358354282823055e-08	-1.608638001021916e-07	-1.14641774489312e-07	9.169770778549288e-07
0.54	-0.1531016396470173	0.01954689935598282	0.7840638024088912	0.9681690048654593	-0.2533360389578312	-0.02597691775978435	-0.6781908550521181	1.049073160940763	1.049073160940792	0.05831147461845675	0.1738158651493655	0.3134109465938703	0.09648941987740459	-0.351933718578789	-0.1788484374103307	-0.5132200653601056	1.818184253544492	-0.02422950352405942	0.5104189352121761	-0.653365307854599	1.887527023899715	1.887527023899718	-0.07440339489623619	-0.002061729691946893	0.5004032544400607	0.1278617657699219	-0.2224276929311278	0.005992029089175706	0.03918306810245843	-0.3185937004452915	0.001077394068294511	-0.01314187300679599	0.264263010475111	-3.923715822130414	-44.16661825697454	-12.8149017638137	1.750086927694568	-4.301914586539795	-663.1521831423347	60.42700840470721	0.3883939263097062	0.6197950965150006	-0.1130912858872177	-1.842279913279074	0.2291265644361063	-0.316352307180409	2.033452851608275	-2.127425545159292	-2.127425545159294	0.4158340385108678	0.01615551219871849	-0.7378637529662432	0.2047095953742107	-4.999989591326806e-08	2.191784860545462e-08	1.282784342145857e-06	8.48917809105365e-08	-1.578117874532042e-07	-1.013244261291926e-07	8.889460015537186e-07
0.55	-0.1566008501967565	0.01778944270641799	0.7789271172057201	0.9862561568813507	-0.2535673378562845	-0.02089020164983981	-0.6846225632572953	1.067839597847421	1.067839597847467	0.0575879597008616	0.1737975202401774	0.318377258653213	0.097777353932268	-0.3478513738687515	-0.172639371607069	-0.5140015128851562	1.799011581705835	-0.02203429102980439	0.5068797644975848	-0.6329293486092512	1.865531671754026	1.865531671754025	-0.07031310809890362	-0.001610610307254514	0.4927993917860965	0.1297032139529169	-0.2285028506328357	0.006946301348311441	0.03977882917650488	-0.3237388347340266	7.103477836367787e-06	-0.01314448664382241	0.2698442671660901	-3.282222034503056	-44.83839945588892	-13.07003458800561	1.94653351698377	-4.120234377171794	-668.0177051021265	60.60300792609596	0.426709696335522	0.6219592271959291	-0.04337093955263015	-1.989943235490908	0.2141947362758605	-0.379475138973988	2.055715146717323	-2.269883550824038	-2.269883550824434	0.4037632945725357	0.05914718602043863	-0.7806494147080904	0.1707952378262509	-4.47270568407496e-08	2.324449641374262e-08	1.218647664847449e-06	1.020681904003638e-07	-1.546921625590275e-07	-8.827172738181709e-08	8.584473570469239e-07
